Coordinates
version=1
nRows=17
nColumns=33
inDegrees=yes

Units are S.I. units (second, meters, Newtons, ...)
Angles are in degrees.

endheader
time	ground_thorax_rot_x	ground_thorax_rot_y	ground_thorax_rot_z	ground_thorax_tx	ground_thorax_ty	ground_thorax_tz	clav_prot_r	clav_elev_r	scapula_abduction_r	scapula_elevation_r	scapula_upward_rot_r	scapula_winging_r	shoulder_elv_r	plane_of_elev_r	axial_rot_r	elbow_flexion_r	pro_sup_r	wrist_flex_r	wrist_dev_r	clav_prot_l	clav_elev_l	scapula_abduction_l	scapula_elevation_l	scapula_upward_rot_l	scapula_winging_l	shoulder_elv_l	plane_of_elev_l	axial_rot_l	elbow_flexion_l	pro_sup_l	wrist_flex_l	wrist_dev_l
      2.28000000	      0.94836532	     -0.80325124	      0.50518577	     -0.16173564	      0.98488748	     -0.00441170	     -6.64229389	      2.81145465	     -5.54298941	      6.05532189	      9.45548846	     -2.82236843	     37.18031606	    -31.14895690	     28.82349575	     78.17033314	     -8.14607354	      6.75522471	     -5.13000112	     -7.30598698	     -1.75092100	      9.78260705	     -5.42519420	     -2.69507191	     -1.74606408	     43.18111128	    -31.51458233	    -13.86184241	     78.89163750	     17.24122055	     -1.59965001	     -8.52098912
      2.29000000	      0.93864027	     -0.77890185	      0.49595771	     -0.16148093	      0.98490318	     -0.00459603	     -6.46931319	      2.61058941	     -5.20069252	      5.90742484	      9.37027914	     -2.84189941	     37.15169530	    -30.07707451	     27.82721801	     77.82527205	     -8.52672825	      4.56477059	     -3.91759881	     -7.15610859	     -1.89125679	      9.55200041	     -5.37741401	     -2.89253958	     -1.76808532	     43.15810733	    -30.39359825	    -13.22255404	     78.84437323	     17.27539769	     -0.34704501	     -6.66858677
      2.30000000	      0.93208666	     -0.75541728	      0.47935599	     -0.16126869	      0.98484800	     -0.00475899	     -6.27461794	      2.33658371	     -4.88118940	      5.75025734	      9.13574484	     -2.81274727	     37.42299710	    -28.84180713	     27.17531370	     77.39312579	     -9.10337309	      2.52874281	     -2.92654440	     -7.00098547	     -2.03528838	      9.31609260	     -5.33215645	     -3.10287328	     -1.78997247	     43.14039501	    -29.13187241	    -12.53291353	     78.68439094	     17.32089225	      1.02677887	     -4.81940024
      2.31000000	      0.89874022	     -0.69849067	      0.46974307	     -0.16109597	      0.98478560	     -0.00490799	     -6.06675519	      1.98233880	     -4.60784973	      5.58231030	      8.73711208	     -2.73358442	     37.87881172	    -27.48476559	     26.66088154	     76.82737249	     -9.87914403	      0.59267822	     -2.10306735	     -6.82366101	     -2.19663711	      9.03875487	     -5.27759846	     -3.32690782	     -1.80549381	     43.18789343	    -27.76689842	    -11.86689308	     78.40598090	     17.36768506	      2.54602489	     -2.93666249
      2.32000000	      0.91355826	     -0.64229703	      0.32675582	     -0.16067113	      0.98523670	     -0.00503205	     -5.98003839	      1.39618790	     -4.21446880	      5.03200966	      8.79675086	     -2.73613218	     38.04726210	    -26.51414192	     26.15481854	     75.86881940	    -10.14408056	     -0.02134980	     -1.94956949	     -6.75063850	     -2.70375765	      8.75884368	     -4.79443037	     -3.29637572	     -1.84123575	     43.15853207	    -26.71924479	    -11.34978362	     77.76274627	     17.37433440	      2.94341147	     -2.29988151
      2.33000000	      0.81973130	     -0.53021880	      0.52254083	     -0.16096791	      0.98447768	     -0.00516697	     -5.58529982	      1.26572665	     -3.92476136	      5.23432989	      7.96260604	     -2.59786847	     38.56252740	    -24.63929769	     25.44063649	     74.91017837	    -11.60510248	     -2.90949675	     -0.59159200	     -6.38313605	     -2.49378749	      8.34084845	     -5.19159250	     -3.77213404	     -1.81235301	     43.29509864	    -24.72901972	    -10.56004981	     77.22846950	     17.26124231	      5.54549907	      0.71005641
      2.34000000	      0.84292705	     -0.42963374	      0.59288799	     -0.16081735	      0.98497290	     -0.00507872	     -5.38672591	      0.64754390	     -3.32588961	      4.65256179	      8.02922555	     -2.63627987	     38.74467938	    -23.84391513	     25.22273161	     73.61816133	    -11.69019937	     -3.28800558	     -0.53379098	     -6.19917917	     -3.11230754	      7.80312749	     -4.57483468	     -3.66022772	     -1.79906875	     43.43011946	    -23.90730529	    -10.43617289	     76.13553154	     17.33822226	      5.79904556	      1.10995957
      2.35000000	      0.70165481	     -0.30276029	      0.64604273	     -0.16105484	      0.98434335	     -0.00536753	     -4.99049449	      0.23376565	     -3.14359360	      4.73960652	      6.82575324	     -2.36245853	     39.55127953	    -21.66118783	     24.15869507	     72.20576159	    -13.21906028	     -6.28019642	      1.11637370	     -5.80801342	     -3.10160238	      7.37673361	     -4.87873941	     -4.36322803	     -1.84084950	     43.75534738	    -21.63389433	     -9.24048423	     75.41715964	     17.23250057	      8.94211660	      4.41079449
      2.36000000	      0.63441876	     -0.21854671	      0.66726523	     -0.16105649	      0.98456810	     -0.00529875	     -4.71753681	     -0.56986393	     -2.87687142	      4.34836046	      5.95516579	     -2.11021013	     40.45075753	    -19.98806670	     23.62345526	     70.66315246	    -13.77319252	     -7.80550658	      1.97978699	     -5.50316072	     -3.71729679	      6.81274680	     -4.45835484	     -4.71877059	     -1.90466906	     44.26318846	    -20.26352573	     -8.60004358	     74.28326042	     17.42739582	     10.86718476	      6.08130039
      2.37000000	      0.68652182	     -0.06145447	      0.85103573	     -0.16108680	      0.98496638	     -0.00531095	     -4.42464540	     -1.21680592	     -2.14447969	      3.74848144	      6.00005664	     -2.15366012	     40.65511640	    -19.23518846	     23.50434431	     68.75663081	    -13.81079442	     -8.20721878	      2.02919800	     -5.22336948	     -4.39611878	      6.10524544	     -3.77838919	     -4.58451711	     -1.87944986	     44.40176706	    -19.40326472	     -8.63532746	     72.63825244	     17.55877796	     11.12896285	      6.46941165
      2.38000000	      0.51359352	      0.08323718	      0.96544724	     -0.16154461	      0.98405719	     -0.00545629	     -3.93316351	     -1.51018731	     -1.77053409	      3.92429087	      4.86257016	     -1.97177466	     41.19987714	    -16.97258685	     22.35312018	     66.48182615	    -15.07571579	    -10.37721138	      3.74464010	     -4.70022701	     -4.33830920	      5.39570744	     -4.07668376	     -5.15863932	     -1.80372213	     44.66217750	    -17.01296393	     -7.45874671	     70.94627704	     17.36806637	     13.84676813	      8.78156924
      2.39000000	      0.44229142	      0.17913744	      0.80019487	     -0.16168538	      0.98406065	     -0.00538551	     -3.53350215	     -2.30936065	     -1.18380277	      3.46008356	      4.19893328	     -1.82465965	     41.94204739	    -15.33099449	     21.82741197	     64.26876444	    -15.46008379	    -11.49866525	      4.64109276	     -4.26176992	     -5.04180150	      4.52570134	     -3.50257736	     -5.32946846	     -1.79299493	     45.19258419	    -15.63388482	     -6.87606944	     69.17701201	     17.46089868	     15.43936780	      9.92227364
      2.40000000	      0.41935826	      0.28814422	      0.93712846	     -0.16166070	      0.98443344	     -0.00540568	     -3.21195793	     -3.02713125	     -0.58075930	      2.92510425	      3.90879160	     -1.75425312	     42.15455341	    -14.16070518	     21.27412511	     61.67504563	    -15.69292289	    -12.22100151	      5.06343655	     -3.95354667	     -5.72273548	      3.85145354	     -2.88634019	     -5.34997079	     -1.81054285	     45.30674053	    -14.39029270	     -6.35521848	     66.91112617	     17.57845159	     16.22127148	     10.63766288
      2.41000000	      0.35182670	      0.43586606	      1.32436553	     -0.16220848	      0.98368425	     -0.00537960	     -2.62590352	     -3.21735190	      0.02938536	      3.14175820	      2.92288234	     -1.70345315	     42.69038642	    -12.23215237	     20.59946595	     58.93867148	    -16.43619073	    -13.51892907	      6.65034826	     -3.33411801	     -5.87641328	      2.86560015	     -2.92112829	     -5.75150917	     -1.67013649	     45.60819798	    -12.58378918	     -5.76425903	     64.40483268	     17.51155338	     18.43672931	     11.87261864
      2.42000000	      0.25724980	      0.51214694	      1.31991419	     -0.16213334	      0.98414911	     -0.00516527	     -2.23935961	     -4.03361493	      0.83823928	      2.45133836	      2.80320885	     -1.69103319	     42.80759911	    -11.24179310	     20.35185172	     56.25844385	    -16.47098682	    -14.00777207	      6.84112837	     -3.00546809	     -6.72305094	      2.05918600	     -2.06103498	     -5.54593604	     -1.67281542	     45.89321083	    -11.62953650	     -5.47813446	     61.77410025	     17.73120375	     18.88376735	     12.36939016
      2.43000000	      0.23525267	      0.59891171	      1.54120579	     -0.16257771	      0.98321535	     -0.00522484	     -1.62186232	     -4.08551279	      1.57265551	      2.72314146	      2.00032398	     -1.74911029	     43.14236232	     -9.14352273	     19.57452481	     52.97689420	    -17.20171081	    -14.95163696	      8.45353399	     -2.40809314	     -6.77576368	      1.10810824	     -2.15767530	     -5.87357053	     -1.48012271	     45.97790063	     -9.57271184	     -4.72683429	     58.90726277	     17.63410130	     20.92723348	     13.16363963
      2.44000000	      0.18037780	      0.66814929	      1.71406253	     -0.16269724	      0.98321750	     -0.00516753	     -1.12375069	     -4.58018755	      2.23073643	      2.55549608	      1.29377039	     -1.69957143	     43.55819134	     -7.50267543	     19.02907871	     49.80728770	    -17.46791139	    -15.51376927	      9.62192447	     -1.92733698	     -7.30925216	      0.23355132	     -1.74079723	     -6.03572773	     -1.42459847	     46.22897116	     -8.15150730	     -4.01558990	     55.94711766	     17.88471286	     22.49391523	     13.60732068
